PathFileType	4	(X/Y/Z)	Patient4_TMGait_0pt2_02_right_07.trc.trc
DataRate	CameraRate	NumFrames	NumMarkers	Units	OrigDataRate	OrigDataStartFrame	OrigNumFrames
42.296072507553	42.296072507553	4	33	mm	42.296072507553	71	       141
Frame#	Time	R.Midfoot.Superior			Sacral			L.Shoulder			Chest			R.Shoulder			Neck			R.ASIS			L.ASIS			R.Thigh.Superior			R.Thigh.Lateral			R.Thigh.Inferior			R.Patella			L.Thigh.Superior			L.Thigh.Lateral			L.Thigh.Inferior			L.Patella			L.Shank.Superior			L.Shank.Lateral			L.Shank.Inferior			R.Shank.Superior			R.Shank.Lateral			R.Shank.Inferior			R.Heel			R.Midfoot.Lateral			R.Toe			L.Heel			L.Midfoot.Lateral			L.Midfoot.Superior			L.Toe			L.Elbow			L.Wrist			R.Elbow			R.Wrist			
		X1	Y1	Z1	X2	Y2	Z2	X3	Y3	Z3	X4	Y4	Z4	X5	Y5	Z5	X6	Y6	Z6	X7	Y7	Z7	X8	Y8	Z8	X9	Y9	Z9	X10	Y10	Z10	X11	Y11	Z11	X12	Y12	Z12	X13	Y13	Z13	X14	Y14	Z14	X15	Y15	Z15	X16	Y16	Z16	X17	Y17	Z17	X18	Y18	Z18	X19	Y19	Z19	X20	Y20	Z20	X21	Y21	Z21	X22	Y22	Z22	X23	Y23	Z23	X24	Y24	Z24	X25	Y25	Z25	X26	Y26	Z26	X27	Y27	Z27	X28	Y28	Z28	X29	Y29	Z29	X30	Y30	Z30	X31	Y31	Z31	X32	Y32	Z32	X33	Y33	Z33	

71	16.145000000000	884.150243646366	96.538248550515	611.468235615768	792.640692791665	1010.133382544221	596.287432489771	949.915895699518	1421.533442523545	364.577676618089	1085.017059605306	1345.885405587678	496.542675086384	1055.597359072236	1431.226993582859	680.559253624667	974.387301702517	1485.412214679673	517.183709931487	1034.230060139807	924.846214610215	660.410527971941	966.558645352610	955.994091814402	395.710539329544	1041.685318441806	717.802552602257	615.032204959590	959.340005931685	612.462500275032	683.225512050980	1011.442189371507	557.964379181337	587.428511823426	999.907013619746	465.859623162534	590.567490489996	1038.219702685929	766.469761178098	417.371326773337	974.236113644593	639.802784858841	346.555711599512	1076.056189978292	576.682615038901	403.004337246636	1094.348234105675	511.169425258787	400.471917748680	1076.684966376656	440.195781038492	386.262986102242	1006.225709035111	314.498738017475	328.764320666851	1089.628722626922	209.303424333737	380.261167133212	950.515682260311	384.241191611634	602.298034785028	867.972925950290	295.394167934164	672.614961501097	876.382442777004	197.758926735531	603.506852907555	708.568037112164	49.975767047655	588.394340136822	796.476585256317	40.307191265805	656.623232667819	1003.254950437153	39.392807754829	633.077601029879	994.997576092910	37.123515005979	411.028855217008	1070.983100183980	37.116409739778	332.612458387286	1148.076475600367	107.820550219915	357.055870589283	1279.373943150352	67.731095586530	332.500839949703	756.668959271812	1123.581760422899	312.870425024649	673.403262976431	885.305325818194	386.896167818626	1249.997854257619	1160.098390773264	788.791165266846	1491.551137765606	1200.940627453423	707.418606830828	
72	16.168642857143	879.495221586914	96.604194329601	611.530655589693	794.405994084522	1009.635586434031	593.012324350051	948.679555825325	1421.359365266944	360.531884050483	1084.995674371488	1346.133753152411	491.551125328225	1056.328428415313	1431.098737760499	675.758022878324	973.988822734163	1485.238775129559	513.018708620615	1036.410737764618	924.691496747824	656.303810344295	967.485322199044	955.410082066263	391.862277434923	1041.559334901173	716.885250639602	612.010668843484	958.101997306828	612.500777078531	681.016575856169	1009.135549583399	557.056558453891	585.560885736282	996.375257589249	465.247077379479	589.108496816912	1038.815262911293	764.831671406702	413.306806643367	972.461183800869	638.044587550436	344.271222427663	1074.644744078147	574.912774182245	399.727048996757	1091.403121774779	509.402134308316	398.127167132813	1074.628687846724	438.480437352515	384.184175752178	1004.497996887795	312.493042286383	327.750575728675	1088.149419959749	208.072019542297	379.765631129457	946.835752475906	384.003726765510	601.233159628073	864.013908735322	295.698249238719	672.034436376663	872.013634250671	197.776471910594	603.215424156844	703.820003857311	50.285323350100	588.522351668762	791.735629634739	40.428294129791	656.707425489205	998.484606514273	39.356224127688	633.085826745513	993.539338004591	37.055172272078	411.599321368222	1069.017364867317	36.942401877945	332.652469921001	1146.620692426475	106.680393068590	357.101100568888	1277.380387024571	65.736847666158	331.679346682092	756.239247155910	1122.917206533339	309.769934119642	672.409368836798	884.586816930032	382.865627229829	1256.157886811154	1164.163462926299	780.561634445658	1494.386233928275	1214.573883049217	695.651924581708	
73	16.192285714286	874.931393588627	96.727117750498	611.611611807531	796.335102141355	1009.201199349591	589.322687037184	947.907145385519	1421.128743298012	356.050379352465	1085.286041063453	1346.352447224080	486.281372825182	1057.195208048311	1430.991384386446	670.637184443855	973.863930105028	1485.067565726015	508.403289666193	1038.741823418328	924.589877470666	652.001647334295	968.736460106905	954.842628627993	387.768977721670	1041.666848348649	716.020977175764	608.873757476000	957.043995520880	612.626785431760	678.630155615686	1007.081534283725	556.224077316386	583.582874315056	993.118909205527	464.699422806557	587.546312932915	1040.018478275736	763.508019055952	409.449909586906	971.768139534461	636.587897374149	341.958182625134	1074.143125786501	573.438524431908	396.707927199820	1089.445400668475	507.679298739218	395.879534260970	1073.143285578350	436.694386786223	382.203189935775	1002.623875048278	310.868579598977	326.762083216759	1085.749686001020	206.713752978493	379.386753390615	943.356330025090	383.851364874918	600.066316126364	860.194225356386	296.179330696783	671.388650629377	867.769822037703	197.925621999233	602.899246957112	699.112579203195	50.839963953715	588.666796074830	787.032298913267	40.678534328228	656.799608846729	993.739213037623	39.286347016165	633.099731878535	990.104819380484	37.219773184277	412.246006812587	1065.051241560640	36.854830523008	332.726693819522	1143.448291838349	105.339958756333	357.252237613612	1273.553596827097	63.156677302390	330.853182251694	756.720977846535	1121.890756803591	305.625349638107	672.641765422402	883.315159228347	377.427531209323	1261.472735578318	1167.720540578140	772.516743213002	1496.400953571703	1226.065367566838	684.433155509834	
74	16.215928571429	870.465801033454	96.911410399411	611.701166340712	798.385040884562	1008.888283570654	585.258622308525	947.578004107876	1420.916015885613	351.211034282127	1085.876595656029	1346.579169810677	480.787339806063	1058.226402809488	1430.943439368650	665.259316486776	974.012605818706	1484.949751015402	503.428219000765	1041.162401770335	924.565108168170	647.501983647266	970.252973183740	954.373475525404	383.432590764305	1041.912406541428	715.241895959861	605.620961541321	956.086624399235	612.880309526143	676.090963109712	1005.199817780112	555.500222674792	581.512437648541	990.063361313502	464.261170887417	585.906656823083	1041.735062824558	762.585352593202	405.765342125638	972.112728322306	635.504374423749	339.530675006892	1074.506945636820	572.324387053031	393.865278253293	1088.512068716924	506.132751584016	393.673167086576	1072.331097386973	434.975198555134	380.284656999975	1000.907317481329	309.623375546376	325.686308938818	1082.866441060577	205.309121978598	379.059707680574	940.027666490334	383.823759636767	598.821341005169	856.464695658046	296.859427890664	670.674635980190	863.636806344683	198.230363587591	602.556952893810	694.453923254802	51.654747436306	588.812463722689	782.371003254054	41.074904287725	656.888404581186	989.023389205851	39.183083023580	633.118495969381	985.379914053057	37.487768408264	412.853090045755	1059.841179130960	36.780599187167	332.792180383758	1139.175260512508	103.902130474214	357.468157213512	1268.610698240346	60.303535989439	330.130463058288	758.020338979450	1120.652814355885	300.503398029732	674.021162974198	881.643541204672	370.684970111763	1266.112609638451	1170.817393216328	764.683482693088	1497.916747829410	1235.600788874866	673.756518393453	
